# xmcd
#
# Track frame offsets:
#	150
#	17546
#	36868
#	59650
#	78128
#	106771
#	122392
#	143474
#	160453
#	173578
#	192242
#	220748
#	233053
#	250213
#	265587
#	279650
#	295878
#	311746
#	328505
#
# Disc length: 4603 seconds
#
# Revision: 1
# Processed by: cddbd v1.5.2PL0 Copyright (c) Steve Scherf et al.
# Submitted via: EasyCDDAExtractor 10.0.6.1
#
DISCID=0011f913
DTITLE=Grupo Tradição - Micareta Sertaneja (Ao Vivo)
DYEAR=2007
DGENRE=Gaúcha
TTITLE0=Vamo Quebrá Tudo (Ao Vivo)
TTITLE1=Eu Quero Você (Ao Vivo)
TTITLE2=Pout Pourri [Abre A Janela # Parece Castigo] (Ao Vivo)
TTITLE3=Vou Te Amar (Ao Vivo)
TTITLE4=Pout Pourri [Aumenta o Som do Carro # A Bomba (La Bomba) # Tô Pronto] 
TTITLE4=(Ao Vivo)
TTITLE5=Te Digo Sim (Ao Vivo)
TTITLE6=Pout Pourri [Aguenta Coração # Sorriso Mudo] (Part.Esp. Chitãozinho and 
TTITLE6=Xororó) (Ao Vivo)
TTITLE7=Hi Fora! (Ao Vivo)
TTITLE8=Beijo Tá na Moda (Ao Vivo)
TTITLE9=Um Anjo Apareceu (Café Con Canela) (Ao Vivo)
TTITLE10=Pout Pourri [China Véia # Dois Pra Lá, Dois Pra Cá # Tô Chegando a No
TTITLE10=ite] (Ao Vivo)
TTITLE11=Mil Vidas (Ao Vivo)
TTITLE12=Se Não Vai, Eu Vou (Ao Vivo)
TTITLE13=Bebedeira (Part.Esp. Zezé di Camargo and Luciano) (Ao Vivo)
TTITLE14=Galera do Rodeio (Ao Vivo)
TTITLE15=Moranguinho (Ao Vivo)
TTITLE16=Quem Mandou Largar de Mim (Part.Esp. João Bosco and Vinicius) (Ao Vivo)
TTITLE17=Maravilha de Mulher (Ao Vivo)
TTITLE18=Deus é 10 (Ao Vivo)
EXTD=diretor executivo:wagner hildebrand\ndiretor de marketing teófilo teló\nd
EXTD=ireçao artistica e produçao artistica michael teló 
EXTT0=
EXTT1=
EXTT2=
EXTT3=
EXTT4=
EXTT5=
EXTT6=
EXTT7=
EXTT8=
EXTT9=
EXTT10=
EXTT11=
EXTT12=
EXTT13=
EXTT14=
EXTT15=
EXTT16=
EXTT17=
EXTT18=
PLAYORDER=
